<?xml version="1.0" encoding="UTF-8"?>
<svg width="1200pt" height="1200pt" version="1.1" viewBox="0 0 1200 1200" xmlns="http://www.w3.org/2000/svg">
 <path d="m1092.8 966v-1.5586l-3.1211-2.0391-1.0781-1.1992-0.96094-0.83984-1.6797-0.83984-8.0391-5.8789-1.4414-1.6797-0.48047-0.48047-1.9219-1.1992-0.48047-0.35938-0.71875-0.83984-0.35938-0.35938-0.35938-0.12109-0.48047-0.12109h-1.1992l-0.60156-0.12109-0.48047-0.60156-0.35938-0.71875-0.23828-1.4414-0.12109-1.0781v-0.12109l0.96094-3.3594-0.96094-1.1992-0.12109-0.12109-0.59766-2.4023-1.0781-1.1992-1.3203-0.96094-1.1992-1.9219-0.12109-0.71875 0.12109-2.7617-0.12109-0.96094-0.35938-0.48047-0.48047-0.48047-6.2383-12.84-2.6406-0.35938-2.0391-1.3203-1.1992-2.1602-0.12109-3.2383-0.35938-1.4414-0.71875-1.9219-1.0781-1.5586-1.3203-0.71875-1.5586-0.48047-0.60156-1.4414c-0.35938-4.8008-0.83984-9.6016-1.0781-14.52-21.719-20.281-43.559-40.559-65.039-61.078-21.121-20.281-42.121-40.559-63.121-60.84-21.121-20.398-42.359-40.922-63.359-61.559-1.1992-1.0781-2.2812-2.2812-3.4805-3.3594-21.719-20.281-43.441-40.559-65.16-60.84-20.52-19.199-40.922-38.398-61.32-57.719-4.8008-4.5586-9.6016-9.1211-14.398-13.559-22.441-19.68-44.879-39.48-67.199-59.281-22.32-19.68-44.52-39.48-66.84-59.281-15.359-13.559-30.602-27.238-45.84-40.922-0.23828-29.52 0-59.039 0-88.559v-82.441-91.922-90.84-23.52l-404.89 0.003906 1.0781 2.2812 0.35938 1.3203 0.12109 1.4414-0.35938 11.879-0.71875 2.1602-2.3984 4.9219-2.5234 3.3555v0.83984l3.2383 1.3203 4.8008 3.4805 3.8398 4.3203 0.35938 3.6016-0.12109 2.0391 1.3203 3.1211 1.0781 2.8789 0.83984 1.1992 0.35938 0.71875-0.12109 3.3594 0.12109 1.1992 0.60156 1.1992 0.83984 0.96094 0.96094 0.71875 0.96094 0.48047-1.3203 2.2812 0.60156 4.0781 1.5586 7.6797-0.23828 3.8398-1.9219 7.3203-0.83984 6.7188-2.1602 8.6406-1.8008 4.4414-1.0781 4.8008-1.5586 1.9219-0.23828 2.0391 0.12109 2.2812 0.48047 1.5586-0.12109 1.8008 3.1211 5.0391 0.96094 2.6406-0.12109 3-5.7617 18.84-4.1992 6.8398-0.96094 2.7617 1.8008-0.96094 1.5586-2.2812 4.3203-7.6797 0.48047-0.35938 3.9609 0.48047 1.0781-0.48047 0.83984 0.71875 0.35938 0.12109-1.5586 2.8789-1.8008 1.0781-2.1602 0.48047-2.5195 0.96094-1.3203 1.6797-2.5195 5.0391-1.0781 1.0781-0.23828 5.0391-0.83984 2.3984-2.1602-1.0781-1.3203-1.3203v-0.48047l0.60156-2.5195 0.35938-0.96094-2.8789 3.8398-1.6797 3-1.3203 3.8398 0.23828 0.35938 0.35938 0.60156 0.12109 0.60156-0.35938 0.23828-0.35938 0.12109-0.35938 0.35938-0.23828 0.48047-0.36719 1.207-2.6406 5.0391-0.71875 1.9219c-0.60156 2.2812-1.1992 4.4414-1.8008 6.7188l-0.23828 2.0391-0.48047 1.9219-0.96094 2.0391-0.60156 2.0391 0.35938 1.6797 1.4414 2.6406 2.8789 7.5586 0.60156 3.1211-1.0781 5.7617 0.23828 3 1.5586 1.4414 1.4414 0.71875 12.719 11.52 5.2812 3.2383 1.8008 1.6797 3.7188 5.5195 0.23828 0.83984 0.23828 2.8789 0.48047 1.0781 0.71875 0.48047 2.3984 0.83984 0.96094 0.48047 3 2.8789 13.801 20.281 0.48047 2.0391 0.48047 5.5195 0.96094 2.8789 0.71875 1.5586 0.60156 0.71875 1.0781 0.48047 0.60156 1.0781 0.35938 1.3203 0.60156 1.0781 0.60156 2.0391-0.23828 8.6406 2.6406 7.1992-0.35938 1.1992-1.4414 1.1992-1.0781 2.7617-1.0781 5.5195-0.96094 8.5195-1.4414 4.3203 1.8008 4.4414-0.12109 2.2812 0.83984 0.83984 0.71875 1.6797 1.0781 3.2383 1.0781 5.6406 0.96094 2.6406 1.5586 1.0781 3.6016 8.5195 0.12109 1.3203-0.12109 4.1992 0.23828 1.1992 0.96094 2.5195 0.23828 1.3203-0.35938 3.1211-1.0781 1.5586-1.3203 1.1992-1.3203 2.1602 0.35938 3.7188 2.7617 4.1992 6.7188 7.3203 5.1602 4.1992 0.83984 1.1992 0.83984 1.8008 2.0391 1.9219 3.7188 2.6406 3 3 16.199 21.84 3.2383 2.8789 11.641 6.1211 2.8789 3 2.3984 7.1992 2.3984 2.3984-0.12109 6.1211 1.0781 1.9219-0.12109-0.83984 0.12109-2.5195 5.6406 3.8398 1.8008 2.0391 0.35938 0.96094 0.48047 2.2812 0.35938 0.96094 2.6406 3.3594 4.5586 7.4414 3.8398 4.5586 1.5586 2.5195 0.60156 2.8789-1.6797-2.3984-2.3984-2.2812-2.1602-2.5195-0.96094-3.2383-0.96094-2.0391-5.0391-5.1602-2.1484-2.0273 2.8789 7.1992 0.23828 3.3594-3.1211 12-2.6406 4.8008-0.60156 1.9219 2.5195 0.12109 0.71875-0.12109 0.71875-0.48047 0.12109-0.35938v-0.35938l1.2109-1.6836 0.60156-1.0781 0.71875-1.0781 1.3203-1.0781-0.60156-0.35938-0.48047-0.48047-0.96094-1.6797 0.83984-0.23828 0.60156-0.48047 0.60156-0.71875 0.60156-0.96094 1.6797 3.7188 2.6367 2.3945 6.1211 3.1211 0.48047 0.48047 1.3203 0.96094 1.0781 1.4414 0.96094 3.2383 1.0781 0.96094 2.2812 1.1992 1.1992 1.0781 2.3984 3.3594 1.1992 0.60156 0.96094-0.83984 0.48047-1.5586-0.35938-1.9219 5.3984 4.4414 2.8789 3.1211 3.2383 2.3984 1.3203 1.3203 1.6797 1.3203 2.2812 0.71875 2.1602-0.23828 1.3203-1.3203-0.12109-2.1602-0.95703-1.6836-0.60156-1.4414 1.3203-1.3203 0.71875 1.8008 1.1992 0.71875 0.83984-0.60156-0.23828-1.9219-1.0781-1.6797-3-2.5195-1.1992-1.5586 0.60156-0.23828 1.3203-1.3203-0.96094-1.1992 0.12109-1.3203 0.96094-1.0781 2.7617-0.96094-0.96094-1.0781-2.5195-1.6797-0.71875-2.3984v-6.9609l-0.48047-3.2383 3.7188-0.12109 2.5195-0.60156 1.8008-1.6797 1.6797-3.3594 10.199 5.7617 1.6797 2.1602 0.48047 1.0781 1.0781 0.96094 1.4414 0.60156 3.1211 0.60156 4.9219 2.1602h1.9219l1.1992-0.23828 1.0781-0.71875 3.3594-3.1211 0.60156-0.83984 0.48047-0.96094 0.60156-2.3984 0.23828-0.71875 0.96094-0.83984 1.6797-0.96094 1.8008-0.71875h1.4414l1.6797 1.1992 0.12109 1.5586-1.8008 3.8398 4.3203 1.3203 4.8008 0.35938-0.71875 1.4414-0.48047 0.60156-0.71875 0.48047 1.1992 0.48047 1.5586-0.12109 1.6797-0.48047 1.4414-0.60156 0.12109-1.3203 1.1992-0.23828 3.3594 0.60156 1.3203-0.12109 3.6016-0.71875 1.9219-1.0781 2.0391-2.5195 2.8789-4.8008h0.60156l-0.48047 2.8789-0.83984 2.2812-1.3203 1.8008-1.8008 1.4414-0.96094 0.35937-1.0781 0.23828-1.0781 0.35938-0.83984 0.83984-0.35938 1.0781 0.12109 1.0781 0.48047 0.71875 0.71875 0.35938 4.3203-0.71875 2.2812-0.83984 0.96094-1.3203 0.12109-1.6797 0.23828-0.83984 1.3203-1.6797 0.71875-0.35937 0.60156 0.12109 0.60156 0.35938 0.71875 0.23828 0.48047-0.23828 0.71875-1.0781 0.48047-0.23828h2.1602l1.6797 0.48047 1.4414 0.83984 6.4805 5.6406 1.6797 0.60156 1.0781 0.83984 1.6797 2.0391 1.3203 2.0391v0.96094l-1.5586-0.71875-2.0391-1.5586-1.8008-1.9219-0.96094-1.6797-1.6797 0.35938-2.1602-0.96094-3.3594-2.6406-0.35938-0.83984-0.23828-0.96094-0.35937-0.83984-0.96094-0.60156-0.96094 0.12109-0.83984 0.60156-0.60156 0.60156-0.48047 0.35938-2.1602-0.12109-0.96094 0.35938-0.48047 0.96094-0.12109 1.0781-0.23828 1.1992-0.23828 1.0781-0.35938 0.48047-0.83984 0.12109-0.96094 0.48047-0.83984 0.71875-0.35938 0.83984 0.48047 0.23828 2.8789 0.96094-1.9219 0.96094-2.0391-0.23828-3.9609-1.5586-11.641-1.1992-4.6797-1.5586-11.762-1.4414-2.1602 0.71875-4.4414 2.8789-2.2812 0.60156-1.9219-0.60156-3.6016-2.8789-2.0391-0.71875-2.1602 0.35938-1.4414 0.96094-4.5586 4.5586-0.96094 0.48047-1.3203 0.12109-0.96094-0.23828-0.96094-0.48047h-0.71875l-0.71875 2.7617-1.4492 1.3008-1.5586 1.4414-1.5586 0.35938 2.5195 4.1992 3.8398 1.8008 3.2383 2.2812 0.83984 5.7617-1.3203 4.5586v2.6406l1.6797 1.1992 2.0391 0.35938 4.9219 1.9219 1.8008 1.0781-3.9609 1.6797 0.48047 0.12109 1.4414 0.71875-0.60156 1.8008 0.83984 0.35937 2.5195-0.48047 1.1992 0.71875 0.60156 0.96094 1.8008 4.6797 4.0781 14.039 1.3203 2.5195 1.5586 1.8008h2.2812l0.60156 0.23828 0.48047 0.48047 0.60156 0.96094 0.12109 0.60156-0.12109 0.83984v0.71875l0.35938 0.35937 0.71875 0.12109 1.5586 0.83984-1.3203 1.1992-1.9219 0.48047-2.1602-0.12109-1.8008-0.71875-1.0781-1.4414-1.0781-2.1602-0.96094-1.7969-1.3203 0.12109-1.0781-0.83984-1.0781-1.0781-1.0781-0.60156-2.0391 0.96094-0.48047-0.96094-0.35938-1.4414-0.48047-0.96094-1.3203-0.83984-1.0781-0.12109-0.71875-0.60156-0.23828-2.1602-0.71875-0.48047-3.1211 0.48047-1.0781-0.12109-1.6797-2.3984-0.71875-0.60156-0.83984-0.23828-1.6797-0.12109-0.83984-0.35938-1.1992-1.1992-0.015625-0.59766-0.12109-1.0781-0.71875-1.4414v-1.1992l0.60156-7.6797 0.23828-1.0781 0.71875-0.60156 1.4414-0.60156h-1.5586l-0.48047-0.60156v-0.96094l-0.12109-0.96094-1.3203-4.9219-0.96094-1.1992-2.0391-0.35938-4.0781 0.12109-2.0391 0.48047-1.4414 0.96094-1.6797 4.8008 0.60156 5.2812 1.3203 5.1602 0.35938 4.6797-0.60156 2.1602-1.6797 3.6016-0.35938 2.8789 0.60156 5.3984 1.0781 1.0781 1.1992 0.23828h1.1992l1.0781 0.35938 1.4414 2.1602 0.96094 5.1602 1.0781 2.1602 1.3203 1.9219 0.96094 2.5195 0.60156 2.6406 0.23828 2.3984-0.48047 5.1602-0.96094 4.6797-0.12109 4.4414 2.1602 4.4414 2.8789 2.3984 1.1992 1.5586 0.48047 2.2812 0.96094 1.4414 6.1211 4.6797 5.3984 7.0781 3 3 7.3203 4.5586 1.9219 0.71875 2.1602 0.23828 2.2812-0.48047 2.0391-0.83984 1.9219-0.12109 1.5586 1.4414 3.2383-2.0391 2.7617-0.23828 2.6406 1.4414 2.6406 3.2383 5.5195 10.68 2.2812 3.2383-1.9219 7.3203 0.83984 0.48047 0.83984 0.12109 0.83984-0.12109 0.83984-0.48047 0.35938 0.83984 0.60156 0.96875-0.12109 0.71875-0.35938 0.83984-2.2812-0.71875-1.4414-0.12109-0.71875 1.1992-0.48047 5.7617-0.83984 2.3984-1.1992 2.2812-1.3203 1.8008-1.9219 1.0781-1.5547-0.83984-1.5586-1.5586-1.9219-0.60156-1.5586 0.83984-1.3203 1.9219-1.8008 4.4414 1.5586 0.48047 1.1992 0.96094 1.0781 0.60156 0.96094 0.83984 0.35937 1.5586-0.48047 1.0781-1.8008 0.23828-0.11719 1.1992 0.35938 2.1602 2.3984 5.6406 0.96094 5.0391 0.23828 5.1602 0.12109 0.96094 1.1992 3.4805 0.36328 1.4375 0.12109 0.83984 0.23828 0.71875 0.71875 1.0781 0.96094 0.83984 1.0781 0.48047 0.83984 0.71875 0.35938 1.6797 0.48047 1.1992 1.0781 1.1992 1.1992 0.96094 2.8789 0.83984 9.2383 6.2383 2.7617 3.1211 4.8008 8.1602 1.5586 4.3203 1.1992 2.1602 1.4414 0.83984 2.2812 0.35937 1.9219 0.83984 1.5586 1.3203 1.1992 1.5586 0.96094 1.8008 0.83984 2.2812 0.60156 2.5195 0.23828 2.6406 0.60156 2.3984 1.4414 1.6797 3.3594 2.8789 2.043 3.1289 1.3203 1.5586 3.4805 1.8008 1.0781 2.6406 0.96094 5.1602 3.7188 7.1992 2.0391 0.35938 5.5195 3 3.4805 0.60156 2.7617 3 2.8789 5.6406 3.3594 3.8398 2.7617 3.7188 2.6406 2.4023 2.7617 1.9219 6.4805 1.0781 2.3984 1.0781 1.0781 1.4414 0.60156 1.6797 0.83984 3.2383 0.71875 1.3203 1.9219 2.5195 0.71875 1.6797-1.5586 0.96094-1.4414 0.23828-0.60156-0.71875 0.83984-1.9219-0.71875-0.71875-2.6406 7.5586-0.12109 4.1992 0.23828 1.9219 0.96094 1.8008 2.5195 2.2812 5.7617 2.2812 2.5195 1.8008 0.48047-0.60156 1.6797-0.60156 2.0391-0.35937 1.5586 0.23828 0.83984 0.60156 1.8008 1.9219 0.83984 0.48047 1.6797 0.60156 0.71875 0.60156 0.83984 3.6016 0.48047 4.0781-0.23438 4.4336-0.60156 4.5586-2.8789 7.3203-0.35938 2.6406 0.48047 0.96094 2.8789 2.5195 0.71875 0.83984 0.60156 0.83984 0.35938 1.0781 0.23828 1.3203-0.23828 2.8828-1.4414 4.5586-0.35937 2.6406 1.1992 1.6797 0.96094 2.0391 0.71875 2.1602-0.35938 3-0.83984 2.1602-0.83984 1.5586-0.60156 1.9219-0.96094 3.7188-0.83984 1.9219 0.72266 1.4414 1.1992 1.1992 2.5195 0.71875 2.8789 0.83984h2.2812l3.6016 2.8789 2.7617 3.8398 2.2812 4.5586 4.0781 0.12109 9.1211-2.0391 14.281-0.83984 4.6797 0.35938 4.0781 1.6797 4.9219-1.4414 5.6406 1.9219 9.8398 4.9219 1.8008-0.35938 2.1602-0.83984 2.0391-0.60156 1.5586 0.60156 1.3203 1.0781 2.1602 1.3203 2.3984 1.0781 1.8008 0.23828 1.0781-0.83984 0.83984-1.0781 0.83984-0.96094 4.8008-1.0781 2.0391 0.60156 2.3984-0.12109 1.1992 0.12109 1.0781 0.48047 2.1602 1.9219 6.1211 2.7617 3.4805 1.0781 11.52 10.32 1.3203 0.60156h2.2812l1.0781 0.23828 0.96094 0.60156 0.35938 0.96094v1.1992l0.35938 1.0781 1.1992 0.71875-0.48047 1.3203 0.35938 1.5586 0.83984 1.6797 0.96094 1.4414 0.35938 0.71875 0.007813 1.4414 0.35938 0.60156 0.48047 0.35938 0.96094 0.23828 0.60156 0.35938 4.3203 3.8398 2.5195 1.4414 3 0.12109-1.4414-0.35938-0.83984-0.23828-0.60156 0.12109-0.48047-1.0859 3.2383 0.60156 8.0391 4.9219 9.6016 2.7617 4.8008 0.48047 3.7188 1.5586 1.6797 1.6797 1.6797-1.0781 1.9219-0.83984 13.922-1.6797 1.3203 0.12109 0.96094 0.48047 0.71875 0.12109 1.0781-0.48047 1.4414-0.83984 2.3984 0.48047 2.8789 1.9219 3 2.6406 3.6016 5.7617 2.2812 5.2812 1.9219 4.3203 0.60156 2.0391 0.12109 1.6797-0.12109 3.7188-0.71875 1.5586-1.3203 1.5586-0.48047 1.9219 1.9219 2.5195 0.60156 0.35938 1.1914 0.58984 1.0781 0.12109 0.96094-0.48047 1.0781-0.23828 0.96094 1.0781 0.96094 1.3203 0.96094 0.60156 0.96094 0.23828 1.0781 0.48047 1.0781 0.35937 1.0781-0.23828 0.48047-0.71875 0.12109-0.96094v-1.0781l0.60156-3.4805 0.48047-0.71875 1.3203-0.23828 0.71875-0.23828 0.83984-0.48047 0.83984-0.23828 2.3984 1.6797 1.5586 0.12109 1.9219-0.35938 2.6406 0.23828 1.8008 0.83984 13.078 13.078 3.3594 2.6406 11.398 5.8789 4.5586 3.7188 3.9609 5.1602 1.9219 1.0781 4.3203 2.6406 1.5586 1.1992 5.6406 5.8789 8.8789 6.2383 13.922 18.961 5.1602 10.801 1.9219 5.8789 0.23828 2.0391 0.83984 1.4414 2.5195 11.52v1.8008l-0.96094 2.2812-1.0781 1.1992-0.71875 1.1992 0.12109 2.3984 2.3984 3.6016 0.23828 1.6797-0.12109 2.3984-0.71875 5.0391 0.23828 1.1992 0.96094 2.0391 0.35937 1.4414 0.48047-0.96094 0.48047-3.6016 0.96094-1.3203 1.3203-0.60156h0.60156l1.6797 0.35938 1.6797 0.83984 2.1602 0.96094 1.0781 0.96094 1.5586 2.2812 1.3203 2.6406 0.35938 2.0391-0.71875 0.96094-1.1992-0.23828-0.71875-1.5586-1.4414-2.2812-1.0781-2.1602-1.1992-1.0781-0.23828-1.5586-1.8008-0.71875h-1.4414l-0.96094 1.1992-0.71875 1.0781h2.7617l2.1602 1.4414 1.5586 2.6406 1.6797 3.3594 0.35938 2.8789-0.35938 2.6406 0.60156 3.2383 0.71875 0.83984c29.398-2.6406 58.801-5.2812 88.199-7.9219 29.398-2.6406 58.801-5.2812 88.199-7.9219 17.762-1.5586 35.52-3.2383 53.281-4.8008v0.12109l0.35938-1.4414 3.6016-2.6406 10.078 2.0391 4.0781-0.96094 0.96094-1.6797 0.12109-2.0391-0.12109-2.0391 0.35938-2.0391 1.1992-1.5586 3.6016-2.5195 1.0781-1.4414 0.23828-2.5195-1.5586-7.3203 0.12109-1.4414 0.23828-1.0781v-1.0781l-0.35938-1.4414-2.6406-3.8398-3.3594-1.8008-8.7617-0.60156-3.8398-1.5586-2.8789-3.9609 0.35938-3.9609 1.4414-4.3203 0.48047-4.9219-0.96094-6.6016-0.60156-1.5586-3-3.4805-0.23828-1.6797 0.96094-3.2383 1.1992-1.1992 0.35938-0.96094-0.60156-1.1992-0.71875-0.96094-0.96094-1.4414-0.48047-1.3203 0.96094-0.60156 4.6797-0.35938 2.3984-0.71875 1.6797-1.3203 3.6016-6.7188 0.96094-2.7617 0.96094-1.1992 1.9219-1.9219 1.3203-1.6797 0.35938-0.71875 0.35937-1.5586-0.48047-2.5195v-1.5586l0.83984-0.71875 0.23828-0.48047 0.12109-1.3203-0.12109-2.5195 0.48047-2.7617 1.0781-1.6797 1.0781-1.3203 0.60156-1.6797-1.0781-2.0391-0.35938-1.3203 0.48047-0.60156 0.35938-0.60156 0.12109-1.3203-0.12109-1.3203-0.35938-0.60156-1.1992-1.1992-0.35938-2.7617v-3l-0.12109-1.8008 1.6797-1.4414 0.83984-1.0781-0.12109-0.96094-1.9219-2.1602-0.83984-1.3203-0.35938-1.3203 0.60156-2.5195 1.5586-1.5586 3.8398-2.5195 1.5586-1.5586 1.5586-1.9219 1.0781-2.2812 0.83984-4.9219 0.96094-2.1602 1.5586-1.5586 3.4805-1.0781 9.8398-6.9609 1.9219-0.48047 3-3.9609 3.2383-3.1211 3-2.2812 0.83984-1.5586zm-797.64-420.84-0.12109 0.35938h-0.48047l-0.23828 0.60156 0.12109 0.96094 0.60156 0.35938 0.71875-0.23828 0.48047-1.4414h-0.12109zm5.2812 4.8008 0.35938 1.4414v0.12109l1.1992 1.3203 0.12109-0.35938-0.60156-0.23828 0.23828-2.0391v-0.12109z"/>
</svg>
